Coordinates
version=1
nRows=19
nColumns=24
inDegrees=yes

Units are S.I. units (second, meters, Newtons, ...)
Angles are in degrees.

endheader
time	pelvis_tilt	pelvis_list	pelvis_rotation	pelvis_tx	pelvis_ty	pelvis_tz	hip_flexion_r	hip_adduction_r	hip_rotation_r	knee_angle_r	ankle_angle_r	subtalar_angle_r	mtp_angle_r	hip_flexion_l	hip_adduction_l	hip_rotation_l	knee_angle_l	ankle_angle_l	subtalar_angle_l	mtp_angle_l	lumbar_extension	lumbar_bending	lumbar_rotation
      7.07000000	      0.06034801	     -0.86661717	      3.23622253	     -0.01338147	      0.88363199	      0.23943900	      5.69563788	      6.60968973	      7.14053748	    -15.26995812	     15.66526006	     -3.72649647	      0.00000000	     28.52322903	     -2.12364967	     -8.35363642	    -71.47828693	      7.54075372	     -4.02497598	      0.00000000	    -25.16731624	      1.38961889	    -11.63334925
      7.08000000	     -0.12607984	     -0.45735688	      3.17187749	     -0.00271394	      0.88432252	      0.23901622	      4.90576819	      6.19771036	      7.40045954	    -14.90878099	     15.95460489	     -3.93256726	      0.00000000	     29.72924125	     -1.38443806	     -8.21260381	    -69.68503908	      8.57033863	     -3.34960940	      0.00000000	    -25.03135811	      0.84019988	    -11.59639255
      7.09000000	     -0.23910804	     -0.10475275	      2.92362916	      0.00800509	      0.88495805	      0.23881248	      4.03485723	      5.86852061	      7.99291343	    -14.54642298	     16.16578598	     -4.25984470	      0.00000000	     30.68469259	     -0.82021685	     -8.19889221	    -67.57779594	      9.45468924	     -2.89143682	      0.00000000	    -24.97698732	      0.30728448	    -11.28408313
      7.10000000	     -0.36073517	      0.22689979	      2.75501783	      0.01872066	      0.88546253	      0.23838969	      3.19903063	      5.53727207	      8.43141451	    -14.22070390	     16.34865563	     -4.59146030	      0.00000000	     31.51475343	     -0.22026440	     -8.07986427	    -65.13561803	      9.97642200	     -3.04664587	      0.00000000	    -24.91101721	     -0.15505435	    -11.06270433
      7.11000000	     -0.51191157	      0.48600535	      2.57882915	      0.02947815	      0.88576102	      0.23796457	      2.42513220	      5.27127296	      8.77911655	    -13.93964655	     16.51969944	     -4.83256715	      0.00000000	     32.22906267	      0.29111577	     -7.91710147	    -62.39169760	     10.31668786	     -3.54645237	      0.00000000	    -24.79934894	     -0.55566399	    -10.85722701
      7.12000000	     -0.54349834	      0.71918131	      2.27602776	      0.04024040	      0.88616086	      0.23756051	      1.54772145	      5.02480837	      9.27832584	    -13.70188335	     16.62479964	     -5.06730257	      0.00000000	     32.62407214	      0.71906903	     -7.79875927	    -59.29641848	     10.35020596	     -4.42969986	      0.00000000	    -24.84609050	     -0.92389898	    -10.39528129
      7.13000000	     -0.66547301	      0.88386864	      1.98637108	      0.05114248	      0.88628225	      0.23710188	      0.78128526	      4.82892588	      9.63491234	    -13.48476736	     16.72298947	     -5.21461592	      0.00000000	     32.94440737	      1.07005941	     -7.63212568	    -55.88758612	     10.22878133	     -5.49971264	      0.00000000	    -24.74597438	     -1.20601315	    -10.06072568
      7.14000000	     -0.61632687	      1.02216606	      1.55639634	      0.06210043	      0.88656965	      0.23676585	     -0.13761900	      4.64947578	     10.09008095	    -13.32948242	     16.80222195	     -5.24628883	      0.00000000	     32.86467926	      1.32337047	     -7.48246437	    -52.12458913	      9.90988905	     -6.61924604	      0.00000000	    -24.84730925	     -1.49934361	     -9.48945168
      7.15000000	     -0.62800514	      1.08722777	      1.11366122	      0.07320742	      0.88662518	      0.23639249	     -0.97524526	      4.52391235	     10.44680891	    -13.20303890	     16.85772990	     -5.19570592	      0.00000000	     32.66299309	      1.48871248	     -7.27541359	    -48.05726035	      9.41642790	     -7.69991046	      0.00000000	    -24.83824789	     -1.70518816	     -8.95165243
      7.16000000	     -0.73988911	      1.07199544	      0.63369474	      0.08449291	      0.88637940	      0.23603612	     -1.68884314	      4.46505251	     10.77289029	    -13.11423002	     16.87738993	     -5.09507133	      0.00000000	     32.38137206	      1.54510910	     -7.01721277	    -43.71313627	      8.73377782	     -8.65992771	      0.00000000	    -24.64834391	     -1.82424457	     -8.40901501
      7.17000000	     -0.57640261	      1.04287795	      0.03195401	      0.09588443	      0.88639780	      0.23581008	     -2.67999412	      4.39540353	     11.16216074	    -13.07247573	     16.92529679	     -4.83827757	      0.00000000	     31.57743761	      1.52760207	     -6.71217659	    -39.07483840	      7.97370497	     -9.22682750	      0.00000000	    -24.80174675	     -1.96642480	     -7.69581949
      7.18000000	     -0.72005840	      0.85663136	     -0.57668528	      0.10738395	      0.88573541	      0.23559991	     -3.29442929	      4.48904207	     11.56923630	    -13.12929718	     16.89653360	     -4.64868601	      0.00000000	     30.98549140	      1.34342747	     -6.23123662	    -34.32539202	      6.96636570	     -9.67624044	      0.00000000	    -24.51890409	     -1.93486073	     -6.96560338
      7.19000000	     -0.53370148	      0.67693525	     -1.25056178	      0.11925117	      0.88536825	      0.23548513	     -4.32418452	      4.53660257	     12.01936473	    -13.11896933	     16.88561836	     -4.37527356	      0.00000000	     29.84021613	      1.10816080	     -5.75602103	    -29.41551609	      5.98390428	     -9.74271260	      0.00000000	    -24.57904948	     -1.92926056	     -6.20769091
      7.20000000	     -0.53576099	      0.33264291	     -1.98748545	      0.13112575	      0.88445957	      0.23547745	     -5.08596881	      4.75596892	     12.59499686	    -13.25569290	     16.84829151	     -4.12293257	      0.00000000	     28.84854678	      0.66164655	     -5.07823520	    -24.59938166	      4.90590973	     -9.69139310	      0.00000000	    -24.39916148	     -1.75889765	     -5.33611135
      7.21000000	     -0.47013212	     -0.07585653	     -2.76261285	      0.14315932	      0.88342897	      0.23561095	     -5.91379197	      5.02945128	     13.25890789	    -13.45227181	     16.79236453	     -3.88829522	      0.00000000	     27.73916280	      0.09007245	     -4.31767739	    -19.94757641	      3.86116778	     -9.44821418	      0.00000000	    -24.28247783	     -1.55048461	     -4.43518313
      7.22000000	     -0.46785825	     -0.63670576	     -3.55807349	      0.15511964	      0.88208213	      0.23584734	     -6.62002827	      5.46292535	     13.95759732	    -13.78378985	     16.72566368	     -3.58848339	      0.00000000	     26.76886228	     -0.70469711	     -3.52020438	    -15.69672771	      2.99140932	     -8.93672965	      0.00000000	    -24.13527477	     -1.17604583	     -3.48601882
      7.23000000	     -0.30195170	     -1.01602029	     -4.36767793	      0.16760369	      0.88087757	      0.23623027	     -7.56507584	      5.67603869	     14.80674779	    -14.07575566	     16.64211882	     -3.46749580	      0.00000000	     25.57652514	     -1.34995284	     -2.88804054	    -11.73010683	      2.17345518	     -8.48064025	      0.00000000	    -24.06864118	     -1.08117050	     -2.60437457
      7.24000000	     -0.22243557	     -1.50181745	     -5.15018420	      0.17993732	      0.87941134	      0.23656194	     -8.33239055	      6.00318125	     15.55404141	    -14.54736398	     16.55388263	     -3.21695611	      0.00000000	     24.64370840	     -2.12049126	     -2.38966755	     -8.43002337	      1.73813795	     -7.72132600	      0.00000000	    -23.97044589	     -0.83464790	     -1.75626399
      7.25000000	     -0.08316723	     -1.82717353	     -5.88623118	      0.19240953	      0.87802919	      0.23686620	     -9.15352954	      6.14560045	     16.33767621	    -15.05143121	     16.49460025	     -2.97726237	      0.00000000	     23.76523635	     -2.70715810	     -2.09764239	     -5.75858737	      1.49399413	     -6.74411446	      0.00000000	    -23.94298498	     -0.80227216	     -0.97718901
